# xmcd
#
# Track frame offsets:
#	150
#	12560
#	24277
#	36670
#	49925
#	63245
#	76675
#	89005
#	100550
#	113230
#	125975
#	137890
#	149495
#	160382
#	172305
#	184845
#	195750
#	207075
#	219507
#	231192
#
# Disc length: 3244 seconds
# Revision: 0
# Processed by: cddbd v1.5.2PL0 Copyright (c) Steve Scherf et al.
# Submitted via: dBpowerAMP V12.0
#
DISCID=250caa14
DTITLE=Hank Williams - 40 Greatest Hits Disc 1
DYEAR=1978
DGENRE=Country
TTITLE0=Move It On Over
TTITLE1=A Mansion On The Hill
TTITLE2=Lovesick Blues
TTITLE3=Wedding Bells
TTITLE4=Mind Your Own Business
TTITLE5=You're Gonna Change Or I'm Gonna Leave
TTITLE6=Lost Highway
TTITLE7=My Bucket's Got A Hole In It
TTITLE8=I'm So Lonesome I Could Cry
TTITLE9=I Just Don't Like This Kind Of Livin
TTITLE10=Long Gone Lonesome Blues
TTITLE11=My Son Calls Another Man Daddy
TTITLE12=Why Don't You Love Me Like You Used To Do
TTITLE13=Why Should We Try Anymore
TTITLE14=They'll Never Take Her Love From Me
TTITLE15=Moanin The Blues
TTITLE16=Nobody's Lonesome For Me
TTITLE17=Cold Cold Heart
TTITLE18=Dear John
TTITLE19=Howlin At The Moon
EXTD=
EXTT0=
EXTT1=
EXTT2=
EXTT3=
EXTT4=
EXTT5=
EXTT6=
EXTT7=
EXTT8=
EXTT9=
EXTT10=
EXTT11=
EXTT12=
EXTT13=
EXTT14=
EXTT15=
EXTT16=
EXTT17=
EXTT18=
EXTT19=
PLAYORDER=
